<svg xmlns="http://www.w3.org/2000/svg" viewBox="0 0 377.52 127.19"><defs><style>.cls-1{fill:#00263a;}.cls-2{fill:#ffbf00;}</style></defs><title>Normal amarillo-azul</title><g id="Layer_2" data-name="Layer 2"><g id="Layer_1-2" data-name="Layer 1"><path class="cls-1" d="M162.15,42.23v-4h9.55V71.36C171.7,83,164.13,90,152.2,90c-5.71,0-11.75-1.49-15.82-4.36l3.47-7.94a21.35,21.35,0,0,0,11.94,3.69c6,0,10.29-3.36,10.29-9.58V69.23c-2.46,3-6.12,4.88-11.11,4.88-8.81,0-16.64-7.34-16.64-18.42S142.16,37.23,151,37.23C156,37.23,159.69,39.17,162.15,42.23ZM144.33,55.69c0,5.22,3.54,9.47,9.1,9.47,5.41,0,9.06-4.1,9.06-9.47s-3.65-9.51-9.06-9.51C147.87,46.18,144.33,50.43,144.33,55.69Z"/><path class="cls-1" d="M215.6,56.51c0,.78-.08,1.6-.12,2.28H187.62c.86,7.34,6,11,12,11a16.64,16.64,0,0,0,10.93-4.21l3.24,4.17c-4.4,4.11-9.32,5.37-14.54,5.37-10.52,0-18-7.42-18-18.46s7.42-18.46,17.61-18.46C208.59,38.16,215.52,45.66,215.6,56.51Zm-27.9-2.65h21.67c-.75-6.26-4.81-10.29-10.56-10.29C192.55,43.57,188.63,47.82,187.7,53.86Z"/><path class="cls-1" d="M258.92,52.45V74.34h-5.56V54.27c0-6.71-3.73-10.66-10.18-10.66-5.93,0-10.82,4.1-10.82,10.81V74.34h-5.59V39h5.52v5c2.87-4.21,7.57-5.74,11.9-5.74C252.91,38.31,258.92,43.9,258.92,52.45Z"/><path class="cls-1" d="M303.69,56.59c0,.63,0,1.23-.07,1.75H274.19c.64,8.17,6.38,12.87,13.58,12.87a16.38,16.38,0,0,0,11.86-5l2.27,2.91a18.92,18.92,0,0,1-14.39,5.78c-10.26,0-17.64-7.39-17.64-18.09s7.49-18.13,17.38-18.13C296.61,38.68,303.58,46.11,303.69,56.59Zm-29.42-1.91h25.1c-.64-7.27-5.6-12.23-12.2-12.23C280.05,42.45,275.09,47.56,274.27,54.68Z"/><path class="cls-1" d="M336.83,40l-1.08,4.14a13.79,13.79,0,0,0-6.23-1.42c-5.85,0-10,4.74-10,11.82V74.34h-4.21V39.24h4.17v6a12.18,12.18,0,0,1,10.82-6.56A14.65,14.65,0,0,1,336.83,40Z"/><path class="cls-1" d="M377.52,74.34h-2.58V66.21a16.66,16.66,0,0,1-14.84,8.54A17.31,17.31,0,0,1,342.46,57c0-10.22,7.64-17.83,17.64-17.83a16.61,16.61,0,0,1,14.84,8.58V39.54h2.58ZM345.11,57c0,8.65,6.34,15.33,15,15.33s15-6.61,15-15.33-6.38-15.37-15-15.37S345.11,48.27,345.11,57Z"/><path class="cls-1" d="M153.31,113.23a4.86,4.86,0,0,1,0,.56h-9.7a4.27,4.27,0,0,0,4.48,4.09,5.5,5.5,0,0,0,3.91-1.59l.75.92a6.36,6.36,0,0,1-4.75,1.84,5.76,5.76,0,1,1-.08-11.51A5.42,5.42,0,0,1,153.31,113.23Zm-9.7-.6h8.27a4,4,0,0,0-4-3.89A4.17,4.17,0,0,0,143.61,112.63Z"/><path class="cls-1" d="M167.69,112v6.84h-1.41v-6.42a3.37,3.37,0,0,0-3.71-3.63,3.68,3.68,0,0,0-3.87,3.7v6.35h-1.4V107.72h1.39v2a4.68,4.68,0,0,1,4.13-2.14C165.72,107.54,167.69,109.27,167.69,112Z"/><path class="cls-1" d="M182.73,113.23a4.86,4.86,0,0,1,0,.56H173a4.27,4.27,0,0,0,4.48,4.09,5.5,5.5,0,0,0,3.91-1.59l.75.92a6.36,6.36,0,0,1-4.75,1.84,5.76,5.76,0,1,1-.08-11.51A5.42,5.42,0,0,1,182.73,113.23Zm-9.7-.6h8.27a4,4,0,0,0-4-3.89A4.17,4.17,0,0,0,173,112.63Z"/><path class="cls-1" d="M193.82,108l-.35,1.31a4.81,4.81,0,0,0-2.05-.45c-1.93,0-3.31,1.51-3.31,3.76v6.29h-1.39V107.72h1.38v1.9a4,4,0,0,1,3.56-2.09A4.9,4.9,0,0,1,193.82,108Z"/><path class="cls-1" d="M206.16,109.9v-2.18h1.4v10.4c0,3.71-2.67,5.64-6.07,5.64a7.56,7.56,0,0,1-4.87-1.61l.71-1a6.84,6.84,0,0,0,4.16,1.36c2.59,0,4.67-1.43,4.67-4.35v-1.58a5.11,5.11,0,0,1-4.51,2.34,5.7,5.7,0,1,1,0-11.39A5.12,5.12,0,0,1,206.16,109.9Zm-8.83,3.33a4.47,4.47,0,1,0,4.46-4.42A4.33,4.33,0,0,0,197.33,113.23Z"/><path class="cls-1" d="M211.64,106.05l2.7-3.56h1.77L213,106.05Zm2.15,12.82h-1.4V107.72h1.4Z"/><path class="cls-1" d="M229.44,118.87h-1.39v-2.14a5.27,5.27,0,0,1-4.59,2.32,5.76,5.76,0,1,1,0-11.51,5.3,5.3,0,0,1,4.59,2.33v-2.15h1.39Zm-10.33-5.57a4.51,4.51,0,1,0,4.51-4.49A4.38,4.38,0,0,0,219.11,113.3Z"/><path class="cls-1" d="M251.17,109l-1.65,1.69a4,4,0,0,0-2.83-1.17,3.64,3.64,0,0,0,0,7.27,4.32,4.32,0,0,0,2.89-1.18l1.59,1.71a6.08,6.08,0,1,1-4.4-10.14A5.73,5.73,0,0,1,251.17,109Z"/><path class="cls-1" d="M266.1,113.2a6.35,6.35,0,1,1-6.34-6A6,6,0,0,1,266.1,113.2Zm-10,0a3.7,3.7,0,1,0,3.69-3.64A3.54,3.54,0,0,0,256.07,113.2Z"/><path class="cls-1" d="M280.77,111.74v7.13h-2.58v-6.31c0-1.91-1-3-2.74-3a2.87,2.87,0,0,0-3.05,3v6.29h-2.58V107.52h2.56v1.39a4.22,4.22,0,0,1,3.61-1.69A4.46,4.46,0,0,1,280.77,111.74Z"/><path class="cls-1" d="M293.14,110.36a7.86,7.86,0,0,0-3.64-1c-1.4,0-2.22.55-2.22,1.35s.86,1,1.94,1.18l1.22.17c2.57.36,4.09,1.41,4.09,3.36,0,2.18-2,3.71-5.36,3.71a8.91,8.91,0,0,1-5.05-1.46l1.19-1.86A6.07,6.07,0,0,0,289.2,117c1.75,0,2.67-.53,2.67-1.39,0-.64-.64-1.06-2-1.25l-1.22-.16c-2.61-.34-4-1.5-4-3.33,0-2.25,1.87-3.64,4.87-3.64a9.21,9.21,0,0,1,4.77,1.2Z"/><path class="cls-1" d="M307.85,109l-1.64,1.69a4,4,0,0,0-2.83-1.17,3.64,3.64,0,0,0,0,7.27,4.34,4.34,0,0,0,2.89-1.18l1.58,1.71a5.77,5.77,0,0,1-4.39,1.81,6,6,0,1,1,0-12A5.71,5.71,0,0,1,307.85,109Z"/><path class="cls-1" d="M314.18,103.59a1.81,1.81,0,1,1-1.82-1.75A1.75,1.75,0,0,1,314.18,103.59Zm-.52,15.28h-2.58V107.52h2.58Z"/><path class="cls-1" d="M328.76,113.18a9.16,9.16,0,0,1-.05.93H320a3.29,3.29,0,0,0,3.5,2.89,5.75,5.75,0,0,0,3.41-1.2l1.28,1.77a7.3,7.3,0,0,1-4.85,1.6,5.7,5.7,0,0,1-6-6,5.64,5.64,0,0,1,5.86-6C326.49,107.22,328.75,109.64,328.76,113.18Zm-8.74-1h6.11a2.93,2.93,0,0,0-3-2.79A3,3,0,0,0,320,112.22Z"/><path class="cls-1" d="M343.43,111.74v7.13h-2.58v-6.31c0-1.91-1-3-2.74-3a2.87,2.87,0,0,0-3.05,3v6.29h-2.58V107.52H335v1.39a4.23,4.23,0,0,1,3.61-1.69A4.46,4.46,0,0,1,343.43,111.74Z"/><path class="cls-1" d="M355.72,109.77h-4.51v4.94c0,1.53.84,2.12,1.87,2.12a4.79,4.79,0,0,0,2.37-.77l1,2a6.5,6.5,0,0,1-3.61,1.13c-2.67,0-4.23-1.39-4.23-4.41v-5h-2.35v-2.25h2.35v-3.44h2.58v3.44h4.51Z"/><path class="cls-1" d="M369.69,113.18c0,.32,0,.64-.05.93h-8.7a3.29,3.29,0,0,0,3.5,2.89,5.77,5.77,0,0,0,3.41-1.2l1.27,1.77a7.29,7.29,0,0,1-4.84,1.6,5.7,5.7,0,0,1-6-6,5.63,5.63,0,0,1,5.86-6C367.42,107.22,369.68,109.64,369.69,113.18Zm-8.74-1h6.11a2.93,2.93,0,0,0-3-2.79A3,3,0,0,0,361,112.22Z"/><path class="cls-2" d="M46.34,0A62.42,62.42,0,0,0,2,18.41a6.27,6.27,0,0,0-1,7.83,5.91,5.91,0,0,0,9.18,1A50.87,50.87,0,0,1,59,13.71a50.85,50.85,0,0,1,18.18,8.42,7.88,7.88,0,0,1,2.23,10.42,7.66,7.66,0,0,1-11,2.09,35.65,35.65,0,0,0-20.54-7A36,36,0,1,0,81.93,72H66L48.1,79.16a1.81,1.81,0,0,1-2.67-1.81V71.92h-8a2.76,2.76,0,0,1-.7-.11h-.46a2.24,2.24,0,0,1,0-4.48h9.17V59.47h-8a2.39,2.39,0,0,1-.7-.12h-.46a2.24,2.24,0,0,1,0-4.47h9.17V49.8A2,2,0,0,1,48.1,48l17,6.78H94.2v0a3.75,3.75,0,0,1,3.74,3.33,52.84,52.84,0,0,1,.29,5.49,51.41,51.41,0,0,1-38.15,49.59H60l-.34.09a50.87,50.87,0,0,1-49.34-13.15A6.12,6.12,0,0,0,2,99.75a6.13,6.13,0,0,0-.24,8.83,62.37,62.37,0,0,0,44.58,18.61c34.78,0,63.07-28.53,63.07-63.59S81.12,0,46.34,0Z"/></g></g></svg>